<?xml version="1.0" encoding="utf-8"?>
<!-- Svg Vector Icons : http://www.onlinewebfonts.com/icon -->
<!DOCTYPE svg PUBLIC "-//W3C//DTD SVG 1.1//EN" "http://www.w3.org/Graphics/SVG/1.1/DTD/svg11.dtd">
<svg version="1.1" xmlns="http://www.w3.org/2000/svg" xmlns:xlink="http://www.w3.org/1999/xlink" x="0px" y="0px" viewBox="0 0 1000 1000" enable-background="new 0 0 1000 1000" xml:space="preserve">
<metadata> Svg Vector Icons : http://www.onlinewebfonts.com/icon </metadata>
<g><path d="M696.8,453.8c0,0-137.8-33.1-70.5-191.7c67.3-158.6,228.5-29.9,279.8,41.7c51.3,71.6,97.7,193.3,80.1,278.2c-17.6,84.9-81.7,183.2-153.8,201.8c-72.1,18.2-158.1-29.9-154.9-98.3c3.2-68.4,54.5-88.1,54.5-88.1S648.7,553.6,696.8,453.8z"/><path d="M303.2,453.8c0,0,137.8-33.1,70.5-191.7c-67.3-158.6-228.5-29.9-279.8,41.7C42.6,375.3-3.8,497,13.8,581.9c17.6,84.9,81.7,183.2,153.8,201.8c72.1,18.2,158.1-29.9,154.9-98.3c-3.2-68.4-54.5-88.1-54.5-88.1S351.3,553.6,303.2,453.8z"/><path d="M655.1,813.7c-2.1-28.8-7.5-120.1,0.5-211.5c2.1-26.7,9.6-45.4,20.3-53.9c11.2-8.5,25.6-5.9,25.6-5.9l8-39l8.5-39c-4.8-1.1-47.5-10.7-86.5,18.7c-29.9,22.4-47.5,60.3-52.3,111.6c-8.5,92.4,57.7,218.9,57.7,218.9H655.1z"/><path d="M321.9,548.3c11.2,8.5,18.2,27.2,20.8,53.9c8,90.8,2.7,182.1,0.5,211.5h18.2c0,0,65.7-126.6,57.7-218.9c-4.8-51.3-22.4-89.2-52.3-111.6c-39-29.4-81.7-19.8-86.5-18.7l17.6,78C297.9,542.9,311.2,540.3,321.9,548.3z"/></g>
</svg>