<?xml version="1.0" encoding="utf-8"?>
<!-- Svg Vector Icons : http://www.onlinewebfonts.com/icon -->
<!DOCTYPE svg PUBLIC "-//W3C//DTD SVG 1.1//EN" "http://www.w3.org/Graphics/SVG/1.1/DTD/svg11.dtd">
<svg version="1.1" xmlns="http://www.w3.org/2000/svg" xmlns:xlink="http://www.w3.org/1999/xlink" x="0px" y="0px" viewBox="0 0 1000 1000" enable-background="new 0 0 1000 1000" xml:space="preserve">
<metadata> Svg Vector Icons : http://www.onlinewebfonts.com/icon </metadata>
<g><path d="M502.3,512.1c-19.3,12.7-25.1,24.6-17.4,47.8c14.2,42.7,18.1,86.7-8.9,128.5c-7.4,11.4-6.7,28.3-8.8,42.8c-5.9,39.7-9.7,79.8-17.5,119.1c-6.1,30.6-26.6,49.7-58.5,55.2c-42.8,7.4-85.9,13.4-128.1,23.4c-31.5,7.4-63.6,16.6-92.4,31c-76.8,38.5-120.8,17-123.2-68c-2.5-88.3,3.8-176,55.3-253.3c2.9-4.4,3.5-12.1,2.1-17.5c-12.2-47.1,2.1-88.7,29.1-125.7c39.3-53.8,80.9-105.9,121.5-158.7c1.3-1.7,2.8-3.2,4.2-4.8C314,273,371.1,283,402.7,357c12.8,30.1,25.1,60.5,38,90.6c2.3,5.4,6.3,10.1,17.9,14.8c3-24.2,8.2-48.4,8.7-72.7c1.5-77.3,2.6-154.6,0.8-231.8c-0.6-26.3-7.1-53.8-17.1-78.1c-13.2-32.1-6.4-52.6,29.7-69.7c4.1,8.3,9.3,18.8,15.3,30.9c13.2-12,19.9-18.1,26.6-24.2c15.2,8.8,30.4,17.6,48.2,27.8c-39.9,64.8-41.7,135.7-38.7,207.3c2.9,71-14,143.7,19.7,222.3c14.5-32.5,27.2-56.9,36.5-82.5c13.6-37.5,26.1-77.8,70.7-86.1c46.4-8.7,73.2,25.4,98.3,57.9c29.7,38.5,58.8,77.5,89.1,115.4c36.3,45.5,62.7,93.4,47.9,154.7c-1.2,5,1.2,12,4.1,16.8c51.7,85.6,61,179.8,51.3,276c-5.5,54.3-47.4,79.4-93.5,53.6c-67.3-37.6-140.7-44.2-213.3-57.2c-76.2-13.6-94-32.3-104.4-108.5c-7.1-51.8-5.8-103.8-29.1-154.6c-12.1-26.3,1.9-66,7.8-98.9C522.1,533,524.5,533.5,502.3,512.1z"/></g>
</svg>